Coordinates
version=1
nRows=14
nColumns=40
inDegrees=yes

Units are S.I. units (second, meters, Newtons, ...)
Angles are in degrees.

endheader
time	pelvis_tilt	pelvis_list	pelvis_rotation	pelvis_tx	pelvis_ty	pelvis_tz	hip_flexion_r	hip_adduction_r	hip_rotation_r	knee_angle_r	knee_angle_r_beta	ankle_angle_r	subtalar_angle_r	mtp_angle_r	hip_flexion_l	hip_adduction_l	hip_rotation_l	knee_angle_l	knee_angle_l_beta	ankle_angle_l	subtalar_angle_l	mtp_angle_l	lumbar_extension	lumbar_bending	lumbar_rotation	arm_flex_r	arm_add_r	arm_rot_r	elbow_flex_r	pro_sup_r	wrist_flex_r	wrist_dev_r	arm_flex_l	arm_add_l	arm_rot_l	elbow_flex_l	pro_sup_l	wrist_flex_l	wrist_dev_l
     16.47750000	     -2.82032509	     -2.67671970	      0.01384717	      0.86984604	      0.93548298	      0.41385828	     33.53107843	     -5.70735422	     -6.03810953	     65.69559892	     65.69559892	      1.28482480	    -18.85005394	      9.78422240	      8.20786980	     -1.71263054	     -7.37144920	     17.17531341	     17.17531341	     13.71387066	    -11.79653311	      1.56542486	     -8.60167203	      5.54402650	      2.95107698	     -4.91282719	    -10.75957311	    -12.67679606	     21.03031132	     46.72520121	      0.00000000	      0.00000000	     20.97049706	    -13.51072221	     -1.79186909	     55.98382075	     46.66804563	      0.00000000	      0.00000000
     16.48985714	     -2.88566713	     -2.74907093	     -0.09769818	      0.86890513	      0.93561508	      0.41388372	     33.96522828	     -5.48292909	     -6.62755442	     62.93123233	     62.93123233	      2.09729434	    -18.76173809	      9.90482497	      7.52466199	     -1.78300227	     -7.58658866	     16.63988513	     16.63988513	     13.88719482	    -11.41307925	      1.46522578	     -8.75265730	      5.67633783	      3.04920151	     -6.53939171	    -10.67163178	    -12.71718736	     20.80722893	     46.72804282	      0.00000000	      0.00000000	     21.80717173	    -13.47310102	     -2.52728388	     57.88039089	     46.76152676	      0.00000000	      0.00000000
     16.50221429	     -3.00294285	     -2.75591896	     -0.22868185	      0.86797216	      0.93545583	      0.41405471	     34.29987250	     -5.27143889	     -7.12003763	     59.73236676	     59.73236676	      2.65918870	    -18.58768212	      9.41593763	      6.93768560	     -1.81785639	     -7.94247568	     16.19409908	     16.19409908	     14.09498029	    -10.86028656	      1.12249520	     -8.89117699	      5.67595239	      2.97372448	     -8.20531748	    -10.54135190	    -12.83632916	     21.36237091	     46.70886296	      0.00000000	      0.00000000	     22.12377775	    -13.46474054	     -4.07799728	     61.00555803	     46.93534367	      0.00000000	      0.00000000
     16.51457143	     -3.18341471	     -2.90479944	     -0.32983820	      0.86695909	      0.93522957	      0.41433790	     34.46343274	     -4.85915442	     -7.63048059	     55.97762380	     55.97762380	      3.15670392	    -18.22439120	      9.24346954	      6.49949346	     -1.98555698	     -8.05540297	     15.86652747	     15.86652747	     14.29575709	    -10.67517927	      1.02292726	     -8.87349903	      5.90537901	      2.78038001	     -9.41592150	    -10.52923153	    -12.85325676	     21.20623428	     46.70902530	      0.00000000	      0.00000000	     22.86047782	    -13.64203284	     -4.59231542	     62.17403301	     46.99762087	      0.00000000	      0.00000000
     16.52692857	     -3.33326616	     -3.03331403	     -0.43764293	      0.86604304	      0.93493768	      0.41467757	     34.37073564	     -4.43396222	     -8.08435319	     51.75732672	     51.75732672	      3.56409792	    -17.56891431	      8.81655065	      6.00926616	     -2.14128803	     -8.25529660	     15.52547465	     15.52547465	     14.52340237	    -10.39516087	      0.88200600	     -8.89575319	      6.12764275	      2.82971637	    -10.63393771	    -10.50919040	    -12.87503274	     21.10812339	     46.70653971	      0.00000000	      0.00000000	     23.56547419	    -13.59329177	     -5.14259716	     63.65320044	     47.06640298	      0.00000000	      0.00000000
     16.53928571	     -3.48903669	     -3.04705637	     -0.64076198	      0.86524285	      0.93443218	      0.41525383	     33.92893352	     -4.09748235	     -8.53121956	     46.81074313	     46.81074313	      2.46183854	    -16.89577316	      3.91469432	      5.50538162	     -2.24990224	     -8.88129767	     15.20422754	     15.20422754	     14.81453219	     -9.48822429	      0.33729502	     -9.04178374	      6.09832854	      2.62030883	    -12.01836137	    -10.49765100	    -12.92254702	     22.42435337	     46.65367332	      0.00000000	      0.00000000	     23.19798230	    -13.38959292	     -7.42295901	     67.80189526	     47.30520490	      0.00000000	      0.00000000
     16.55164286	     -3.67188234	     -3.20949760	     -0.74583692	      0.86440149	      0.93389901	      0.41588752	     33.37762405	     -3.54889368	     -8.96154061	     41.71313705	     41.71313705	      2.75145489	    -15.38263737	      3.72369388	      5.14635670	     -2.44710712	     -8.91336897	     15.05312728	     15.05312728	     15.06668044	     -9.52225928	      0.23539136	     -8.98846605	      6.31259840	      2.52562662	    -12.76480953	    -10.55599189	    -12.85488321	     22.18553726	     46.65451489	      0.00000000	      0.00000000	     23.92269462	    -13.54916534	     -7.61892927	     68.43282933	     47.33369701	      0.00000000	      0.00000000
     16.56400000	     -3.76731382	     -3.28297124	     -0.88777932	      0.86389304	      0.93329206	      0.41664681	     32.22555229	     -3.06902898	     -9.53786823	     35.74805889	     35.74805889	      0.90007298	    -14.13336714	     -2.37276139	      4.60918081	     -2.58527291	     -9.24802406	     14.81483152	     14.81483152	     15.38576428	     -9.09760949	      0.02798034	     -9.06488747	      6.40181725	      2.34705641	    -13.41291850	    -10.67294109	    -12.14136205	     22.29486792	     46.61620985	      0.00000000	      0.00000000	     24.04863249	    -13.53506385	     -8.70490958	     70.52533328	     47.46949363	      0.00000000	      0.00000000
     16.57635714	     -3.90898784	     -3.36405663	     -1.00395703	      0.86343642	      0.93250563	      0.41752777	     31.17047279	     -2.51990401	    -10.01004207	     30.21420195	     30.21420195	      1.11660760	    -11.54250268	     -1.86132167	      4.15030150	     -2.71277613	     -9.37781714	     14.61913157	     14.61913157	     15.65887324	     -8.99428863	     -0.14624621	     -9.02808672	      6.51566225	      2.50991831	    -14.03156585	    -10.71526857	    -12.07792537	     22.09623566	     46.61812889	      0.00000000	      0.00000000	     24.65895371	    -13.47100993	     -8.76294253	     71.31576148	     47.49128747	      0.00000000	      0.00000000
     16.58871429	     -4.03244818	     -3.40322077	     -1.10951533	      0.86324634	      0.93156623	      0.41851447	     29.94667620	     -2.00147258	    -10.54132897	     24.76998406	     24.76998406	      1.16983434	     -8.60498846	     -1.09301700	      3.64722517	     -2.80199631	     -9.54428592	     14.41766809	     14.41766809	     15.95828528	     -8.83760821	     -0.36026003	     -8.96084164	      6.58763693	      2.65236163	    -14.49365685	    -10.74630243	    -12.04164993	     21.99328487	     46.61947773	      0.00000000	      0.00000000	     25.10309271	    -13.41962455	     -8.84411168	     72.17597185	     47.51471769	      0.00000000	      0.00000000
     16.60107143	     -4.10058272	     -3.40690576	     -1.21792076	      0.86334076	      0.93045849	      0.41969473	     28.66769646	     -1.50749966	    -11.09011764	     19.81348544	     19.81348544	      1.13073050	     -5.61501098	      0.04007877	      3.06082485	     -2.85680497	     -9.68293662	     14.21281537	     14.21281537	     16.28983979	     -8.69206873	     -0.59971147	     -8.91023339	      6.55655657	      2.75232248	    -14.79435694	    -10.78254197	    -12.02320872	     21.92088581	     46.62257506	      0.00000000	      0.00000000	     25.42147254	    -13.37867281	     -8.91066096	     73.02117481	     47.53765333	      0.00000000	      0.00000000
     16.61342857	     -4.10180805	     -3.35760380	     -1.32376863	      0.86367366	      0.92927997	      0.42095426	     27.44979040	     -1.12095085	    -11.73945350	     15.69965130	     15.69965130	      1.20954362	     -2.67147677	      1.59608825	      2.37346619	     -2.85028846	     -9.84452137	     13.98749719	     13.98749719	     16.64265605	     -8.55471070	     -0.83710223	     -8.89759232	      6.50139009	      2.84736483	    -14.89073431	    -10.84506392	    -12.01614448	     21.86129473	     46.62920798	      0.00000000	      0.00000000	     25.61469899	    -13.38751491	     -8.97112107	     73.87852371	     47.56235989	      0.00000000	      0.00000000
     16.62578571	     -4.20384606	     -3.32293549	     -1.46387743	      0.86399146	      0.92802041	      0.42236989	     26.83983501	     -0.88564697	    -12.71844843	     13.28179288	     13.28179288	      2.99163587	      0.68147768	      7.45058549	      1.78885314	     -2.86328760	    -10.00491991	     13.74252134	     13.74252134	     16.97339792	     -8.44044661	     -1.01360644	     -8.79094775	      6.43259383	      2.53099471	    -14.38322213	    -10.97140963	    -11.94119472	     21.48484994	     46.68556096	      0.00000000	      0.00000000	     25.13765192	    -13.65626545	     -9.39639813	     75.49947389	     47.65037160	      0.00000000	      0.00000000
     16.63814286	     -4.35414861	     -3.22280922	     -1.57304984	      0.86436213	      0.92654068	      0.42395541	     26.29497066	     -0.61605819	    -12.91621994	     11.34864739	     11.34864739	      2.79126271	      1.73623999	      7.98138455	      1.35084679	     -2.82016728	    -10.03122580	     13.67754627	     13.67754627	     17.31753000	     -8.52170498	     -1.09150395	     -8.57691145	      6.30886223	      2.65184765	    -14.18525927	    -11.02019113	    -11.93409637	     21.48342341	     46.69064338	      0.00000000	      0.00000000	     25.32890392	    -13.61260886	     -9.33883082	     75.68270779	     47.65369811	      0.00000000	      0.00000000
